<?xml version="1.0" encoding="UTF-8"?>
<svg version="1.1" xmlns="http://www.w3.org/2000/svg" width="128" height="128">
<path d="M0 0 C13.4049791 10.08466889 22.8895283 24.50756459 25.4140625 41.22265625 C27.18485288 61.98721061 23.29842818 79.57058598 9.65625 95.8125 C-1.52088628 107.82694788 -16.23240541 115.81854174 -32.78515625 116.55859375 C-53.04635469 116.8915543 -69.39297325 112.35679155 -84.5859375 98.22265625 C-98.11616884 84.40360224 -103.01172963 68.53868692 -102.95166016 49.61206055 C-102.62380549 31.62065989 -94.95829184 16.37822505 -82.15625 3.84375 C-58.82102307 -16.61785106 -25.26462465 -17.36465894 0 0 Z " fill="#191818" transform="translate(102.5859375,11.77734375)"/>
<path d="M0 0 C5.22905542 -1.40328181 9.87171227 -1.82270868 15 0 C22.83953192 5.19347318 29.0775448 12.71956944 35.4375 19.5625 C37.22488252 21.43381545 39.01587223 23.3016925 40.81054688 25.16601562 C43.34710764 27.80140706 45.87766833 30.44011941 48.37974548 33.10829163 C53.82353881 38.90320333 59.4550994 44.26075862 65.75 49.125 C69.75539937 52.46283281 71.78328557 54.60402132 72.6015625 59.875 C72.71519155 63.6176569 72.50202954 67.28687587 72 71 C70.08952218 72.91047782 67.1821319 72.51796284 64.6171875 72.6875 C58.61549568 72.64485921 55.68216383 71.6913941 51.2578125 67.625 C49.50956446 65.7847389 47.79866751 63.908342 46.125 62 C45.23425781 61.04609375 44.34351563 60.0921875 43.42578125 59.109375 C41.24848631 56.76819765 39.11061413 54.40118279 37 52 C33.84587 53.5199832 31.40676635 55.12476177 28.8125 57.5 C28.11769531 58.1084375 27.42289063 58.716875 26.70703125 59.34375 C24.14681506 62.88545772 24.14681506 62.88545772 24 72 C16.08 72 8.16 72 0 72 C-1.98491526 61.28145759 -1.98491526 61.28145759 0 56 C5.02028127 49.06705074 11.62393632 43.40927233 18.05053711 37.80908203 C20.07494436 36.14295782 20.07494436 36.14295782 21 34 C20.13713379 33.60977661 20.13713379 33.60977661 19.25683594 33.21166992 C11.95609185 29.29198224 1.96808949 20.66878102 -0.78759766 12.73144531 C-1.44457217 8.30893325 -0.78302471 4.39261295 0 0 Z " fill="#FAFAFA" transform="translate(28,28)"/>
<path d="M0 0 C5.28 0 10.56 0 16 0 C17.7614383 12.33006809 17.7614383 12.33006809 14.56005859 17.18261719 C10.57588569 21.87175583 6.02960042 26.42875404 1 30 C0.34 30 -0.32 30 -1 30 C-1.33 26.04 -1.66 22.08 -2 18 C-5.96 17.67 -9.92 17.34 -14 17 C-11.9822859 12.9645718 -9.63012686 10.43272713 -6.4375 7.375 C-2.77285984 4.03597098 -2.77285984 4.03597098 0 0 Z " fill="#ED792F" transform="translate(84,28)"/>
</svg>
